<?xml version="1.0" encoding="UTF-8"?>
<svg width="20px" height="23px" viewBox="0 0 20 23" version="1.1" xmlns="http://www.w3.org/2000/svg" xmlns:xlink="http://www.w3.org/1999/xlink">
    <!-- Generator: Sketch 51.3 (57544) - http://www.bohemiancoding.com/sketch -->
    <title>shopping-bag</title>
    <desc>Created with Sketch.</desc>
    <defs></defs>
    <g id="-" stroke="none" stroke-width="1" fill="none" fill-rule="evenodd">
        <g id="upper-nav" transform="translate(-1405.000000, -10.000000)" fill="#FFFFFF" fill-rule="nonzero">
            <g id="Group-12" transform="translate(1170.000000, 6.000000)">
                <g id="shopping-bag" transform="translate(235.000000, 4.000000)">
                    <path d="M15.7142857,7.1875 L15.7142857,5.75 C15.7142857,2.57941406 13.1508482,0 10,0 C6.84910714,0 4.28571429,2.57941406 4.28571429,5.75 L4.28571429,7.1875 L0,7.1875 L0,19.40625 C0,21.3910332 1.59897321,23 3.57142857,23 L16.4285714,23 C18.4010268,23 20,21.3910332 20,19.40625 L20,7.1875 L15.7142857,7.1875 Z M7.14285714,5.75 C7.14285714,4.16470703 8.42455357,2.875 10,2.875 C11.5754464,2.875 12.8571429,4.16470703 12.8571429,5.75 L12.8571429,7.1875 L7.14285714,7.1875 L7.14285714,5.75 Z M14.2857143,11.140625 C13.6939732,11.140625 13.2142857,10.6579395 13.2142857,10.0625 C13.2142857,9.46706055 13.6939732,8.984375 14.2857143,8.984375 C14.8774554,8.984375 15.3571429,9.46706055 15.3571429,10.0625 C15.3571429,10.6579395 14.8774554,11.140625 14.2857143,11.140625 Z M5.71428571,11.140625 C5.12254464,11.140625 4.64285714,10.6579395 4.64285714,10.0625 C4.64285714,9.46706055 5.12254464,8.984375 5.71428571,8.984375 C6.30602679,8.984375 6.78571429,9.46706055 6.78571429,10.0625 C6.78571429,10.6579395 6.30602679,11.140625 5.71428571,11.140625 Z" id="Shape"></path>
                </g>
            </g>
        </g>
    </g>
</svg>